<svg xmlns="http://www.w3.org/2000/svg" version="1.1" xmlns:xlink="http://www.w3.org/1999/xlink" xmlns:svgjs="http://svgjs.com/svgjs" width="1440" height="560" preserveAspectRatio="none" viewBox="0 0 1440 560"><g mask="url(&quot;#SvgjsMask1032&quot;)" fill="none"><rect width="1440" height="560" x="0" y="0" fill="#0e2a47"></rect><path d="M57.3200308092629 57.12209904077596L-27.0425640312846 125.43758134155084 41.272918269490276 209.80017618209834 125.63551311003778 141.48469388132347z" fill="rgba(28, 83, 142, 0.4)" class="triangle-float2"></path><path d="M739.8495642780147 268.48310029847323L893.3407416896621 321.4980284218542 868.6908001280558 181.701262988877z" fill="rgba(28, 83, 142, 0.4)" class="triangle-float2"></path><path d="M1261.578,361.381C1296.858,361.378,1323.332,333.228,1340.994,302.687C1358.683,272.098,1369.81,235.15,1352.339,204.436C1334.72,173.462,1297.194,164.215,1261.578,163.076C1223.248,161.85,1179.139,164.958,1160.175,198.291C1141.326,231.422,1162.016,270.327,1182.143,302.698C1200.774,332.662,1226.294,361.384,1261.578,361.381" fill="rgba(28, 83, 142, 0.4)" class="triangle-float2"></path><path d="M1430.373,653.71C1467.927,651.171,1495.409,622.357,1513.999,589.628C1532.303,557.403,1544.645,518.153,1525.342,486.516C1506.575,455.757,1466.404,452.319,1430.373,452.564C1394.926,452.805,1358.062,458.836,1337.618,487.794C1313.844,521.468,1304.45,566.454,1324.565,602.434C1345.063,639.099,1388.463,656.543,1430.373,653.71" fill="rgba(28, 83, 142, 0.4)" class="triangle-float1"></path><path d="M517.2381355071628 21.37373851915648L406.49742279530255 70.67868044998832 455.80236472613444 181.4193931618486 566.5430774379947 132.11445123101674z" fill="rgba(28, 83, 142, 0.4)" class="triangle-float3"></path><path d="M314.9811179450561 403.2913493478431L428.8396852887241 451.62144379493543 477.1697797358165 337.7628764512674 363.31121239214843 289.43278200417507z" fill="rgba(28, 83, 142, 0.4)" class="triangle-float2"></path><path d="M497.146,494.701C544.182,497.274,586.852,468.84,611.174,428.499C636.368,386.712,643.68,334.405,619.26,292.162C594.86,249.953,545.779,227.822,497.146,231.25C453.582,234.321,421.365,268.558,401.606,307.505C383.89,342.426,385.058,382.223,402.859,417.101C422.691,455.96,453.584,492.318,497.146,494.701" fill="rgba(28, 83, 142, 0.4)" class="triangle-float1"></path></g><defs><mask id="SvgjsMask1032"><rect width="1440" height="560" fill="#ffffff"></rect></mask><style>
            @keyframes float1 {
                0%{transform: translate(0, 0)}
                50%{transform: translate(-10px, 0)}
                100%{transform: translate(0, 0)}
            }

            .triangle-float1 {
                animation: float1 5s infinite;
            }

            @keyframes float2 {
                0%{transform: translate(0, 0)}
                50%{transform: translate(-5px, -5px)}
                100%{transform: translate(0, 0)}
            }

            .triangle-float2 {
                animation: float2 4s infinite;
            }

            @keyframes float3 {
                0%{transform: translate(0, 0)}
                50%{transform: translate(0, -10px)}
                100%{transform: translate(0, 0)}
            }

            .triangle-float3 {
                animation: float3 6s infinite;
            }
        </style></defs></svg>