<svg xmlns="http://www.w3.org/2000/svg" version="1.1" xmlns:xlink="http://www.w3.org/1999/xlink" xmlns:svgjs="http://svgjs.com/svgjs" width="1440" height="560" preserveAspectRatio="none" viewBox="0 0 1440 560"><g mask="url(&quot;#SvgjsMask1000&quot;)" fill="none"><rect width="1440" height="560" x="0" y="0" fill="#0e2a47"></rect><path d="M785 433L784 784" stroke-width="10" stroke="url(#SvgjsLinearGradient1001)" stroke-linecap="round" class="Down"></path><path d="M145 514L144 357" stroke-width="8" stroke="url(#SvgjsLinearGradient1001)" stroke-linecap="round" class="Down"></path><path d="M681 329L680 482" stroke-width="8" stroke="url(#SvgjsLinearGradient1002)" stroke-linecap="round" class="Up"></path><path d="M137 382L136 52" stroke-width="6" stroke="url(#SvgjsLinearGradient1001)" stroke-linecap="round" class="Down"></path><path d="M591 462L590 179" stroke-width="6" stroke="url(#SvgjsLinearGradient1001)" stroke-linecap="round" class="Down"></path><path d="M757 355L756 132" stroke-width="6" stroke="url(#SvgjsLinearGradient1001)" stroke-linecap="round" class="Down"></path><path d="M679 48L678 -300" stroke-width="8" stroke="url(#SvgjsLinearGradient1001)" stroke-linecap="round" class="Down"></path><path d="M432 256L431 496" stroke-width="8" stroke="url(#SvgjsLinearGradient1002)" stroke-linecap="round" class="Up"></path><path d="M1229 479L1228 207" stroke-width="8" stroke="url(#SvgjsLinearGradient1001)" stroke-linecap="round" class="Down"></path><path d="M277 197L276 378" stroke-width="10" stroke="url(#SvgjsLinearGradient1001)" stroke-linecap="round" class="Down"></path><path d="M131 229L130 495" stroke-width="8" stroke="url(#SvgjsLinearGradient1001)" stroke-linecap="round" class="Down"></path><path d="M445 358L444 527" stroke-width="10" stroke="url(#SvgjsLinearGradient1001)" stroke-linecap="round" class="Down"></path><path d="M791 535L790 894" stroke-width="10" stroke="url(#SvgjsLinearGradient1002)" stroke-linecap="round" class="Up"></path><path d="M923 490L922 748" stroke-width="8" stroke="url(#SvgjsLinearGradient1001)" stroke-linecap="round" class="Down"></path><path d="M771 127L770 478" stroke-width="6" stroke="url(#SvgjsLinearGradient1001)" stroke-linecap="round" class="Down"></path><path d="M1206 207L1205 -145" stroke-width="10" stroke="url(#SvgjsLinearGradient1001)" stroke-linecap="round" class="Down"></path><path d="M439 445L438 220" stroke-width="10" stroke="url(#SvgjsLinearGradient1001)" stroke-linecap="round" class="Down"></path><path d="M132 45L131 -311" stroke-width="10" stroke="url(#SvgjsLinearGradient1001)" stroke-linecap="round" class="Down"></path><path d="M66 545L65 317" stroke-width="6" stroke="url(#SvgjsLinearGradient1001)" stroke-linecap="round" class="Down"></path><path d="M844 224L843 -67" stroke-width="8" stroke="url(#SvgjsLinearGradient1002)" stroke-linecap="round" class="Up"></path><path d="M296 452L295 203" stroke-width="10" stroke="url(#SvgjsLinearGradient1001)" stroke-linecap="round" class="Down"></path><path d="M807 184L806 529" stroke-width="10" stroke="url(#SvgjsLinearGradient1001)" stroke-linecap="round" class="Down"></path><path d="M440 186L439 -174" stroke-width="6" stroke="url(#SvgjsLinearGradient1001)" stroke-linecap="round" class="Down"></path><path d="M673 497L672 677" stroke-width="10" stroke="url(#SvgjsLinearGradient1001)" stroke-linecap="round" class="Down"></path><path d="M201 264L200 -75" stroke-width="8" stroke="url(#SvgjsLinearGradient1001)" stroke-linecap="round" class="Down"></path><path d="M89 355L88 634" stroke-width="8" stroke="url(#SvgjsLinearGradient1001)" stroke-linecap="round" class="Down"></path><path d="M1328 318L1327 525" stroke-width="10" stroke="url(#SvgjsLinearGradient1002)" stroke-linecap="round" class="Up"></path><path d="M1425 243L1424 542" stroke-width="8" stroke="url(#SvgjsLinearGradient1002)" stroke-linecap="round" class="Up"></path><path d="M340 124L339 415" stroke-width="10" stroke="url(#SvgjsLinearGradient1001)" stroke-linecap="round" class="Down"></path><path d="M1304 475L1303 331" stroke-width="6" stroke="url(#SvgjsLinearGradient1002)" stroke-linecap="round" class="Up"></path><path d="M975 533L974 148" stroke-width="6" stroke="url(#SvgjsLinearGradient1001)" stroke-linecap="round" class="Down"></path><path d="M765 507L764 724" stroke-width="6" stroke="url(#SvgjsLinearGradient1002)" stroke-linecap="round" class="Up"></path><path d="M514 491L513 322" stroke-width="10" stroke="url(#SvgjsLinearGradient1002)" stroke-linecap="round" class="Up"></path><path d="M1050 365L1049 114" stroke-width="8" stroke="url(#SvgjsLinearGradient1002)" stroke-linecap="round" class="Up"></path><path d="M1233 200L1232 569" stroke-width="10" stroke="url(#SvgjsLinearGradient1001)" stroke-linecap="round" class="Down"></path><path d="M1101 212L1100 542" stroke-width="6" stroke="url(#SvgjsLinearGradient1001)" stroke-linecap="round" class="Down"></path></g><defs><mask id="SvgjsMask1000"><rect width="1440" height="560" fill="#ffffff"></rect></mask><linearGradient x1="0%" y1="0%" x2="0%" y2="100%" id="SvgjsLinearGradient1001"><stop stop-color="rgba(28, 83, 142, 0)" offset="0"></stop><stop stop-color="#1c538e" offset="1"></stop></linearGradient><linearGradient x1="0%" y1="100%" x2="0%" y2="0%" id="SvgjsLinearGradient1002"><stop stop-color="rgba(28, 83, 142, 0)" offset="0"></stop><stop stop-color="#1c538e" offset="1"></stop></linearGradient></defs></svg>